<svg width="26" height="26" viewBox="0 0 26 26" fill="none" xmlns="http://www.w3.org/2000/svg">
<path d="M13.0004 4.89604e-06C15.6219 7.79046e-05 18.1822 0.792734 20.3452 2.27394C22.5082 3.75515 24.1728 5.8557 25.1206 8.29991C26.0684 10.7441 26.2551 13.4178 25.6562 15.97C25.0573 18.5222 23.7007 20.8337 21.7646 22.6012C19.8284 24.3686 17.4031 25.5094 14.807 25.8738C12.211 26.2382 9.56534 25.8092 7.21742 24.6431C4.8695 23.477 2.929 21.6283 1.65057 19.3396C0.372149 17.0509 -0.184453 14.4291 0.053816 11.8184C0.0666198 11.6767 0.107207 11.539 0.173261 11.4129C0.239316 11.2869 0.329542 11.1752 0.438791 11.084C0.548039 10.9929 0.674168 10.9242 0.809978 10.8818C0.945788 10.8394 1.08862 10.8241 1.23032 10.8369C1.37201 10.8497 1.5098 10.8903 1.63581 10.9564C1.76182 11.0224 1.87359 11.1127 1.96473 11.2219C2.05587 11.3312 2.1246 11.4573 2.16699 11.5931C2.20939 11.7289 2.22462 11.8717 2.21182 12.0134C2.06321 13.5962 2.26666 15.1923 2.80757 16.6871C3.34849 18.182 4.21346 19.5387 5.34048 20.6599C6.34445 21.6684 7.53826 22.4681 8.85298 23.0128C10.1677 23.5575 11.5773 23.8364 13.0004 23.8333C14.847 23.833 16.663 23.3605 18.2757 22.4609C19.8884 21.5613 21.2444 20.2644 22.2149 18.6933C23.1854 17.1222 23.7382 15.3291 23.8207 13.4842C23.9032 11.6394 23.5128 9.8041 22.6865 8.1526C21.8602 6.50111 20.6255 5.08825 19.0995 4.0482C17.5736 3.00816 15.8071 2.37544 13.9679 2.21015C12.1286 2.04486 10.2776 2.35248 8.59068 3.1038C6.90375 3.85511 5.43688 5.02518 4.32937 6.50289H8.31026C8.58473 6.50297 8.84895 6.60724 9.04951 6.79463C9.25007 6.98201 9.37203 7.23854 9.39074 7.51238C9.40945 7.78622 9.32351 8.05696 9.1503 8.26988C8.97708 8.4828 8.72951 8.62203 8.45759 8.65944L8.31026 8.66956H1.80593C1.54414 8.66954 1.29121 8.57474 1.09392 8.40267C0.896621 8.2306 0.768308 7.99291 0.732705 7.73356L0.722593 7.58622V1.08623C0.722678 0.811749 0.826947 0.547534 1.01433 0.346972C1.20172 0.14641 1.45825 0.0244535 1.73209 0.00574506C2.00593 -0.0129634 2.27666 0.0729714 2.48958 0.246185C2.7025 0.419399 2.84173 0.666977 2.87915 0.938893L2.88926 1.08623L2.88781 4.82878C4.10563 3.31958 5.64613 2.10245 7.39612 1.26682C9.14611 0.431198 11.0611 -0.00167936 13.0004 4.89604e-06ZM11.917 5.77778C12.1788 5.77779 12.4317 5.8726 12.629 6.04467C12.8263 6.21673 12.9547 6.45442 12.9903 6.71378L13.0004 6.86111V13H16.2504C16.5248 13.0001 16.7891 13.1044 16.9896 13.2917C17.1902 13.4791 17.3121 13.7357 17.3308 14.0095C17.3496 14.2833 17.2636 14.5541 17.0904 14.767C16.9172 14.9799 16.6696 15.1191 16.3977 15.1566L16.2504 15.1667H11.917C11.6552 15.1667 11.4023 15.0718 11.205 14.8998C11.0077 14.7277 10.8794 14.49 10.8438 14.2307L10.8337 14.0833V6.86111C10.8337 6.57379 10.9478 6.29824 11.151 6.09508C11.3542 5.89192 11.6297 5.77778 11.917 5.77778Z" fill="#4B4978"/>
</svg>
