<svg width="30" height="28" viewBox="0 0 30 28" fill="none" xmlns="http://www.w3.org/2000/svg">
<path d="M6.81818 12.6H17.7273V15.4H6.81818V19.6L0 14L6.81818 8.4V12.6ZM5.45455 22.4H9.14727C10.7218 23.8257 12.6637 24.7546 14.7397 25.0753C16.8158 25.396 18.9379 25.0949 20.8514 24.2081C22.7649 23.3213 24.3885 21.8864 25.5274 20.0757C26.6663 18.265 27.272 16.1554 27.272 14C27.272 11.8446 26.6663 9.73496 25.5274 7.92426C24.3885 6.11356 22.7649 4.67872 20.8514 3.7919C18.9379 2.90508 16.8158 2.60397 14.7397 2.92468C12.6637 3.2454 10.7218 4.17433 9.14727 5.6H5.45455C6.72363 3.86005 8.37045 2.44792 10.2642 1.4758C12.1579 0.503685 14.2464 -0.0016291 16.3636 3.9456e-06C23.895 3.9456e-06 30 6.2678 30 14C30 21.7322 23.895 28 16.3636 28C14.2464 28.0016 12.1579 27.4963 10.2642 26.5242C8.37045 25.5521 6.72363 24.14 5.45455 22.4Z" fill="#4B4978"/>
</svg>
