<svg width="32" height="32" viewBox="0 0 32 32" fill="none" xmlns="http://www.w3.org/2000/svg">
<path d="M8.73303 4.15751C8.00803 5.32851 9.95753 6.01651 10.307 4.93101C11.8705 4.76951 11.4195 2.80351 10.344 3.04551C10.812 2.25051 9.31253 1.32601 9.17303 2.77151C8.26553 2.01351 7.13703 4.10401 8.73303 4.15751ZM9.03903 3.46451C9.54953 3.84051 9.63503 3.63651 9.60303 3.15301C9.55453 2.32551 10.022 2.35801 9.93053 3.19601C9.88203 3.63651 9.79603 3.65801 10.398 3.83001C10.957 3.98601 10.7585 4.47451 10.183 4.14701C9.60853 3.81401 9.66753 3.74401 9.62453 4.45301C9.58153 5.15701 9.27003 5.03351 9.28053 4.47451C9.29653 3.79251 9.52203 3.94301 8.92603 3.73851C8.34103 3.53401 8.40003 2.99151 9.03903 3.46451Z" fill="#545280"/>
<path d="M14.873 4.55749C13.64 5.12149 15.18 7.2705 16.0495 5.6715C16.8675 6.97449 18.5615 5.30999 17.645 4.43699C18.278 2.76699 16.056 2.2855 15.751 3.4995C15.1835 2.641 13.482 3.72049 14.873 4.55749ZM16.571 3.81399C17.0135 3.32249 17.4125 3.75999 16.784 4.18749C16.1525 4.6165 16.109 4.5185 16.8055 4.9035C17.501 5.288 17.2135 5.544 16.6565 5.2645C15.968 4.919 16.239 4.75949 15.7265 5.27099C15.2215 5.77399 14.7005 5.4495 15.5045 5.025C16.147 4.6875 15.984 4.503 15.479 4.302C14.6145 3.958 14.8905 3.49299 15.691 3.99049C16.113 4.25199 16.091 4.34749 16.571 3.81399Z" fill="#545280"/>
<path d="M23.0505 5.57001C22.522 3.81101 20.401 4.73751 20.9115 5.92351C19.909 5.55301 19.192 7.45951 20.856 7.32351C20.1995 8.52551 22.809 9.38551 22.517 7.54301C24.0035 8.13301 24.349 5.74651 23.0505 5.57001ZM22.002 7.40501C21.9035 8.12251 21.273 8.16501 21.6665 7.33451C21.98 6.67151 21.73 6.61601 21.1915 6.75051C20.2675 6.98101 20.2025 6.43251 21.17 6.36651C21.68 6.33151 21.722 6.42351 21.7815 5.69601C21.836 5.02501 22.435 5.14901 22.188 5.87751C21.941 6.60951 21.844 6.55501 22.656 6.45801C23.466 6.36151 23.392 6.74451 22.76 6.84451C21.9795 6.96951 22.102 6.67601 22.002 7.40501Z" fill="#545280"/>
<path d="M28.9645 10.716C29.1965 8.73601 28.3285 6.44401 25.504 5.96351C26.438 3.08201 22.821 1.48451 21.2905 3.08201C20.161 1.23351 18.3075 1.21451 16.9385 1.53001C17.8335 1.74501 18.5685 2.91851 17.9 3.50651C20.12 4.00851 18.9475 7.39651 17.077 6.54851C17.0665 8.12301 14.132 8.09201 14.345 6.23901C11.5905 5.74351 13.3285 1.37651 15.378 2.63001C15.502 2.30551 15.6515 2.06101 15.816 1.88401C15.4285 2.04001 15.19 2.17151 15.19 2.17151C15.19 2.17151 13.2605 0.043508 10.663 1.52351C10.8355 1.74501 10.9315 2.03351 10.8925 2.40051C13.31 2.15301 12.3055 5.24801 11.1395 4.76451C11.575 6.73651 8.4535 7.15551 8.421 5.32351C7.169 5.94701 6.089 3.59901 7.6415 3.02401C7.433 2.24201 7.7345 1.68101 8.222 1.34851C7.059 1.47901 5.859 2.57901 5.9035 5.73451C2.4585 6.04501 2.4485 10.7315 3.9615 11.6115L7.846 31H21.206L27.5165 26.51L28.631 13.847C28.673 13.3005 28.5945 12.822 28.4145 12.473C28.608 12.123 28.762 11.7245 28.8625 11.296C28.736 11.6585 28.498 11.9715 28.1895 12.1585C28.028 11.9985 27.8305 11.908 27.6265 11.908C27.516 11.908 27.3345 11.939 27.1575 12.081C27.1253 11.9776 27.0808 11.8784 27.025 11.7855C27.6495 11.5875 28.134 10.7295 27.5635 10.1855C28.1705 8.58301 26.0395 8.12201 25.7465 9.28651C25.2025 8.46351 23.5695 9.49851 24.9035 10.302C24.7575 10.3648 24.6358 10.4732 24.5565 10.611C24.8025 10.545 25.061 10.658 25.258 10.9135C25.32 10.862 25.401 10.8075 25.509 10.75C26.1255 10.4255 25.969 10.249 25.485 10.0565C24.6555 9.72601 24.92 9.28051 25.688 9.75751C26.0935 10.008 26.0725 10.1 26.5325 9.58801C26.9575 9.11651 27.3395 9.53551 26.7365 9.94651C26.131 10.358 26.089 10.2645 26.757 10.6335C27.424 11.0025 27.1485 11.248 26.6145 10.98C25.954 10.648 26.2135 10.4955 25.722 10.9865C25.6362 11.0749 25.5335 11.1451 25.42 11.193C25.502 11.378 25.56 11.5975 25.5775 11.853C25.736 11.773 25.893 11.6245 26.0315 11.37C26.053 11.404 26.0775 11.4285 26.1 11.4585C25.856 11.606 25.64 11.9425 25.5405 12.5235L24.6505 27.585L22.9155 28.698L23.839 11.852C23.989 10.723 23.562 9.96851 23.0945 9.83651C23.112 9.75651 23.126 9.67551 23.151 9.59701C22.582 9.82801 21.898 9.74001 21.475 9.02951C21.2813 9.12409 21.0739 9.1877 20.8605 9.21801C21.6585 9.47501 22.253 10.128 22.124 11.1775L21.169 29.9815L17.5815 30L17.5935 12.848L17.5945 11.1775C17.676 9.81001 18.851 9.11851 19.9855 9.09501C18.515 8.42251 18.1415 5.57151 20.06 5.42601C19.2475 2.69801 22.9665 3.20901 22.6745 4.64901C24.8095 3.74051 25.9715 7.24151 23.9085 7.65701C24.0815 7.88801 24.144 8.13251 24.131 8.36901C24.5025 8.18601 24.9375 8.17551 25.3905 8.45201C26.337 5.97101 28.852 8.37601 27.8085 9.29351C28.6395 9.48101 28.971 10.091 28.9645 10.716ZM7.884 9.86201C7.5375 9.49751 7.068 9.26301 6.57 9.15851C6.51282 9.13264 6.45497 9.1083 6.3965 9.08551C5.4765 8.71801 5.752 7.87951 6.605 8.40951C7.0545 8.68801 7.0315 8.79001 7.5425 8.22201C8.0135 7.69901 8.4385 8.16351 7.769 8.61951C7.0965 9.07651 7.051 8.97301 7.792 9.38251C8.416 9.72751 8.2925 9.97151 7.884 9.86201ZM14.3715 9.26601C14.3072 9.16895 14.2381 9.07517 14.1645 8.98501C13.645 7.25451 12.0165 8.05101 11.657 9.26451C11.905 9.35801 12.1345 9.48851 12.333 9.65601C12.5975 9.61151 12.83 9.58151 12.868 9.11351C12.9235 8.42901 13.5355 8.55551 13.2835 9.29901C13.179 9.61001 13.3645 9.70301 13.6075 9.73801C13.2875 10.0455 13.0725 10.463 13.032 10.9885L13.0115 10.991C13.017 11.052 13.022 11.113 13.022 11.177L14.27 30H10.958L8.5675 12.063L8.4495 11.1775C8.44141 11.05 8.44475 10.922 8.4595 10.795C8.438 10.801 8.414 10.805 8.3925 10.8105C8.36281 10.6813 8.3213 10.5551 8.2685 10.4335C8.3685 10.4165 8.465 10.3965 8.5535 10.3715C8.6722 10.0383 8.88906 9.74896 9.1755 9.54151C9.1055 9.35451 8.951 9.13701 8.6865 8.88501C9.36 7.10451 6.9945 6.59401 6.6695 7.88551C6.0645 6.97201 4.252 8.12151 5.734 9.01301C5.6465 9.05301 5.5715 9.09251 5.5015 9.13201C4.9975 9.21501 4.5405 9.43801 4.2365 9.79901C3.5015 8.21801 4.536 5.89851 6.2725 6.95951C7.3235 4.20551 10.115 6.87501 8.9565 7.89301C9.4885 8.40001 9.769 8.83201 9.87 9.20051C9.9935 9.16351 10.1205 9.13501 10.2505 9.11601C10.469 8.97001 10.747 8.86601 11.1115 8.83801C10.282 6.05201 14.08 6.57451 13.7815 8.04451C14.6115 7.69101 15.2325 8.25451 15.4565 9.08801C15.0867 9.07605 14.7181 9.13651 14.3715 9.26601ZM27.19 13.1955C27.2575 12.649 27.4395 12.4085 27.627 12.4085C27.908 12.4085 28.1995 12.9465 28.1335 13.803L27.058 26.0425L26.105 26.654L27.19 13.1955Z" fill="#545280"/>
</svg>
