<svg width="25" height="26" viewBox="0 0 25 26" fill="none" xmlns="http://www.w3.org/2000/svg">
<path d="M14.8452 26H10.1556C9.86173 26 9.57671 25.8987 9.34777 25.7129C9.11882 25.5271 8.95972 25.2678 8.89684 24.9782L8.37247 22.529C7.67296 22.2197 7.00968 21.833 6.39483 21.3759L4.0281 22.1364C3.74796 22.2265 3.4457 22.2173 3.17149 22.1102C2.89729 22.003 2.66765 21.8045 2.52071 21.5475L0.170736 17.4512C0.0253375 17.194 -0.0292413 16.8946 0.0159286 16.602C0.0610985 16.3094 0.203343 16.0409 0.41939 15.8405L2.25531 14.1505C2.17182 13.3849 2.17182 12.6125 2.25531 11.8469L0.41939 10.1608C0.203037 9.9603 0.0605991 9.6916 0.0154218 9.39872C-0.0297555 9.10584 0.0250077 8.80616 0.170736 8.5488L2.51556 4.4499C2.6625 4.19291 2.89214 3.99437 3.16634 3.88724C3.44054 3.78012 3.74281 3.77086 4.02295 3.861L6.38968 4.6215C6.70404 4.3875 7.03128 4.1691 7.36883 3.9715C7.69479 3.7869 8.02977 3.6192 8.37247 3.4697L8.89813 1.0231C8.9607 0.733457 9.11951 0.474094 9.34821 0.288013C9.57691 0.101933 9.86178 0.000311956 10.1556 0H14.8452C15.139 0.000311956 15.4239 0.101933 15.6526 0.288013C15.8813 0.474094 16.0401 0.733457 16.1027 1.0231L16.6335 3.471C16.9942 3.6322 17.3472 3.8129 17.6886 4.0144C18.0069 4.2003 18.3148 4.4044 18.6111 4.6241L20.9791 3.8636C21.2591 3.77379 21.5611 3.78322 21.835 3.89033C22.1089 3.99744 22.3383 4.19579 22.4852 4.4525L24.8301 8.5514C25.129 9.0805 25.0259 9.75 24.5814 10.1621L22.7455 11.8521C22.829 12.6177 22.829 13.3901 22.7455 14.1557L24.5814 15.8457C25.0259 16.2591 25.129 16.9273 24.8301 17.4564L22.4852 21.5553C22.3383 21.8123 22.1087 22.0108 21.8344 22.118C21.5602 22.2251 21.258 22.2343 20.9778 22.1442L18.6111 21.3837C17.9967 21.8405 17.3339 22.2268 16.6348 22.5355L16.1027 24.9782C16.0398 25.2676 15.8809 25.5267 15.6522 25.7125C15.4236 25.8983 15.1388 25.9998 14.8452 26ZM12.4952 7.8C11.1285 7.8 9.81766 8.34785 8.85119 9.32304C7.88473 10.2982 7.34178 11.6209 7.34178 13C7.34178 14.3791 7.88473 15.7018 8.85119 16.677C9.81766 17.6521 11.1285 18.2 12.4952 18.2C13.862 18.2 15.1728 17.6521 16.1393 16.677C17.1058 15.7018 17.6487 14.3791 17.6487 13C17.6487 11.6209 17.1058 10.2982 16.1393 9.32304C15.1728 8.34785 13.862 7.8 12.4952 7.8Z" fill="#545280"/>
</svg>
